<svg xmlns="http://www.w3.org/2000/svg" xmlns:xlink="http://www.w3.org/1999/xlink" width="500" zoomAndPan="magnify" viewBox="0 0 375 374.999991" height="500" preserveAspectRatio="xMidYMid meet" version="1.0"><defs><g/><clipPath id="a3cb64bada"><rect x="0" width="360" y="0" height="64"/></clipPath><clipPath id="8034a63f82"><path d="M 134 6.609375 L 227 6.609375 L 227 47 L 134 47 Z M 134 6.609375 " clip-rule="nonzero"/></clipPath></defs><g transform="matrix(1, 0, 0, 1, 15, 213)"><g clip-path="url(#a3cb64bada)"><g fill="#ffffff" fill-opacity="1"><g transform="translate(0.518914, 52.784469)"><g><path d="M 22.703125 -4.234375 C 21.515625 -2.773438 20.082031 -1.660156 18.40625 -0.890625 C 16.695312 -0.0859375 14.867188 0.3125 12.921875 0.3125 C 10.515625 0.3125 8.28125 -0.363281 6.21875 -1.71875 C 4.164062 -3.050781 2.53125 -4.921875 1.3125 -7.328125 L 6.59375 -9.9375 C 7.25 -8.539062 8.132812 -7.457031 9.25 -6.6875 C 10.375 -5.925781 11.597656 -5.546875 12.921875 -5.546875 C 15.285156 -5.546875 17.164062 -6.519531 18.5625 -8.46875 C 19.957031 -10.425781 20.65625 -13.0625 20.65625 -16.375 L 20.65625 -34.40625 L 26.515625 -34.40625 L 26.515625 -16.375 C 26.515625 -11.28125 25.242188 -7.234375 22.703125 -4.234375 Z M 22.703125 -4.234375 "/></g></g></g><g fill="#ffffff" fill-opacity="1"><g transform="translate(45.230984, 52.784469)"><g><path d="M 34.828125 -8.421875 C 33.253906 -5.703125 31.144531 -3.578125 28.5 -2.046875 C 25.8125 -0.472656 22.898438 0.3125 19.765625 0.3125 C 16.660156 0.3125 13.769531 -0.472656 11.09375 -2.046875 C 8.40625 -3.609375 6.273438 -5.75 4.703125 -8.46875 C 3.140625 -11.15625 2.359375 -14.066406 2.359375 -17.203125 C 2.359375 -20.410156 3.140625 -23.335938 4.703125 -25.984375 C 6.273438 -28.710938 8.40625 -30.859375 11.09375 -32.421875 C 13.738281 -33.953125 16.628906 -34.71875 19.765625 -34.71875 C 22.941406 -34.71875 25.851562 -33.9375 28.5 -32.375 C 31.1875 -30.800781 33.3125 -28.671875 34.875 -25.984375 C 36.414062 -23.265625 37.1875 -20.335938 37.1875 -17.203125 C 37.1875 -14.035156 36.398438 -11.109375 34.828125 -8.421875 Z M 29.75 -23.0625 C 28.707031 -24.84375 27.296875 -26.253906 25.515625 -27.296875 C 23.742188 -28.347656 21.828125 -28.875 19.765625 -28.875 C 17.671875 -28.875 15.753906 -28.347656 14.015625 -27.296875 C 12.234375 -26.253906 10.835938 -24.84375 9.828125 -23.0625 C 8.785156 -21.25 8.265625 -19.296875 8.265625 -17.203125 C 8.265625 -15.109375 8.785156 -13.175781 9.828125 -11.40625 C 10.835938 -9.59375 12.234375 -8.160156 14.015625 -7.109375 C 15.753906 -6.066406 17.671875 -5.546875 19.765625 -5.546875 C 21.859375 -5.546875 23.796875 -6.066406 25.578125 -7.109375 C 27.347656 -8.160156 28.738281 -9.59375 29.75 -11.40625 C 30.769531 -13.175781 31.28125 -15.109375 31.28125 -17.203125 C 31.28125 -19.296875 30.769531 -21.25 29.75 -23.0625 Z M 29.75 -23.0625 "/></g></g></g><g fill="#ffffff" fill-opacity="1"><g transform="translate(98.936859, 52.784469)"><g/></g></g><g fill="#ffffff" fill-opacity="1"><g transform="translate(128.798705, 52.784469)"><g><path d="M 29.1875 -9.890625 C 29.1875 -8.453125 28.835938 -7.09375 28.140625 -5.8125 C 27.398438 -4.476562 26.367188 -3.328125 25.046875 -2.359375 C 23.859375 -1.484375 22.515625 -0.816406 21.015625 -0.359375 C 19.484375 0.117188 17.898438 0.359375 16.265625 0.359375 C 14.628906 0.359375 13.0625 0.117188 11.5625 -0.359375 C 10.019531 -0.816406 8.660156 -1.484375 7.484375 -2.359375 C 5.804688 -3.578125 4.65625 -5.039062 4.03125 -6.75 L 9.25 -9.734375 C 9.289062 -9.203125 9.46875 -8.710938 9.78125 -8.265625 C 10.09375 -7.804688 10.492188 -7.421875 10.984375 -7.109375 C 11.679688 -6.617188 12.5 -6.238281 13.4375 -5.96875 C 14.34375 -5.6875 15.285156 -5.546875 16.265625 -5.546875 C 17.242188 -5.546875 18.203125 -5.6875 19.140625 -5.96875 C 20.046875 -6.238281 20.847656 -6.617188 21.546875 -7.109375 C 22.691406 -8.015625 23.265625 -8.941406 23.265625 -9.890625 C 23.265625 -10.515625 23.039062 -11.125 22.59375 -11.71875 C 22.132812 -12.3125 21.523438 -12.816406 20.765625 -13.234375 C 20.023438 -13.648438 18.382812 -14.015625 15.84375 -14.328125 C 12.988281 -14.640625 10.722656 -15.195312 9.046875 -16 C 7.367188 -16.769531 6.007812 -17.9375 4.96875 -19.5 C 3.925781 -21.070312 3.40625 -22.765625 3.40625 -24.578125 C 3.40625 -26.003906 3.769531 -27.382812 4.5 -28.71875 C 5.195312 -30 6.191406 -31.128906 7.484375 -32.109375 C 8.660156 -32.984375 10.019531 -33.664062 11.5625 -34.15625 C 13.0625 -34.601562 14.628906 -34.828125 16.265625 -34.828125 C 17.898438 -34.828125 19.484375 -34.601562 21.015625 -34.15625 C 22.515625 -33.664062 23.859375 -32.984375 25.046875 -32.109375 C 26.691406 -30.921875 27.859375 -29.441406 28.546875 -27.671875 L 23.265625 -24.625 C 23.234375 -25.5 22.816406 -26.285156 22.015625 -26.984375 C 21.179688 -27.648438 20.222656 -28.15625 19.140625 -28.5 C 18.128906 -28.78125 17.171875 -28.921875 16.265625 -28.921875 C 15.285156 -28.921875 14.34375 -28.78125 13.4375 -28.5 C 12.5 -28.21875 11.679688 -27.832031 10.984375 -27.34375 C 9.828125 -26.476562 9.25 -25.554688 9.25 -24.578125 C 9.25 -23.910156 9.515625 -23.265625 10.046875 -22.640625 C 10.523438 -21.984375 11.1875 -21.476562 12.03125 -21.125 C 12.894531 -20.738281 14.445312 -20.410156 16.6875 -20.140625 C 19.789062 -19.753906 22.085938 -19.175781 23.578125 -18.40625 C 25.328125 -17.425781 26.707031 -16.191406 27.71875 -14.703125 C 28.695312 -13.203125 29.1875 -11.597656 29.1875 -9.890625 Z M 29.1875 -9.890625 "/></g></g></g><g fill="#ffffff" fill-opacity="1"><g transform="translate(175.81152, 52.784469)"><g><path d="M 33.84375 -16.578125 L 22.0625 -0.15625 L 10.203125 -16.625 L 10.203125 0 L 4.34375 0 L 4.34375 -34.9375 L 22.0625 -10.25 L 39.6875 -34.9375 L 39.6875 0 L 33.84375 0 Z M 33.84375 -16.578125 "/></g></g></g><g fill="#ffffff" fill-opacity="1"><g transform="translate(234.014284, 52.784469)"><g><path d="M 4.859375 -34.40625 L 10.765625 -34.40625 L 10.765625 0 L 4.859375 0 Z M 4.859375 -34.40625 "/></g></g></g><g fill="#ffffff" fill-opacity="1"><g transform="translate(263.823851, 52.784469)"><g><path d="M 2.5625 -34.40625 L 29.078125 -34.40625 L 29.078125 -28.5 L 18.71875 -28.5 L 18.71875 0 L 12.859375 0 L 12.859375 -28.5 L 2.5625 -28.5 Z M 2.5625 -34.40625 "/></g></g></g><g fill="#ffffff" fill-opacity="1"><g transform="translate(309.634014, 52.784469)"><g><path d="M 10.203125 -14.28125 L 10.203125 0 L 4.34375 0 L 4.34375 -34.40625 L 10.203125 -34.40625 L 10.203125 -20.1875 L 24.578125 -20.1875 L 24.578125 -34.40625 L 30.4375 -34.40625 L 30.484375 0 L 24.578125 0 L 24.578125 -14.28125 Z M 10.203125 -14.28125 "/></g></g></g></g></g><g fill="#ffffff" fill-opacity="1"><g transform="translate(30.222172, 296.369513)"><g><path d="M 1.671875 0 L 1.671875 -13.421875 L 6.671875 -13.421875 C 7.273438 -13.421875 7.851562 -13.328125 8.40625 -13.140625 C 8.945312 -12.929688 9.4375 -12.644531 9.875 -12.28125 C 10.320312 -11.882812 10.671875 -11.4375 10.921875 -10.9375 C 11.160156 -10.414062 11.28125 -9.878906 11.28125 -9.328125 C 11.28125 -8.191406 10.8125 -7.195312 9.875 -6.34375 C 9.4375 -5.976562 8.945312 -5.703125 8.40625 -5.515625 C 7.851562 -5.304688 7.273438 -5.203125 6.671875 -5.203125 L 3.953125 -5.203125 L 3.984375 0 Z M 3.953125 -7.515625 L 6.671875 -7.515625 C 7.367188 -7.515625 7.929688 -7.707031 8.359375 -8.09375 C 8.773438 -8.425781 8.984375 -8.835938 8.984375 -9.328125 C 8.984375 -9.816406 8.765625 -10.238281 8.328125 -10.59375 C 7.890625 -10.945312 7.335938 -11.125 6.671875 -11.125 L 3.953125 -11.125 Z M 3.953125 -7.515625 "/></g></g></g><g fill="#ffffff" fill-opacity="1"><g transform="translate(58.944689, 296.369513)"><g><path d="M 3.984375 -5.578125 L 3.984375 0 L 1.6875 0 L 1.6875 -13.421875 L 3.984375 -13.421875 L 3.984375 -7.875 L 9.59375 -7.875 L 9.59375 -13.421875 L 11.875 -13.421875 L 11.890625 0 L 9.59375 0 L 9.59375 -5.578125 Z M 3.984375 -5.578125 "/></g></g></g><g fill="#ffffff" fill-opacity="1"><g transform="translate(88.849861, 296.369513)"><g><path d="M 13.59375 -3.28125 C 12.976562 -2.21875 12.15625 -1.390625 11.125 -0.796875 C 10.070312 -0.179688 8.9375 0.125 7.71875 0.125 C 6.5 0.125 5.367188 -0.179688 4.328125 -0.796875 C 3.273438 -1.410156 2.445312 -2.25 1.84375 -3.3125 C 1.226562 -4.351562 0.921875 -5.488281 0.921875 -6.71875 C 0.921875 -7.96875 1.226562 -9.109375 1.84375 -10.140625 C 2.445312 -11.203125 3.273438 -12.039062 4.328125 -12.65625 C 5.359375 -13.25 6.488281 -13.546875 7.71875 -13.546875 C 8.957031 -13.546875 10.09375 -13.238281 11.125 -12.625 C 12.164062 -12.019531 12.992188 -11.191406 13.609375 -10.140625 C 14.210938 -9.078125 14.515625 -7.9375 14.515625 -6.71875 C 14.515625 -5.476562 14.207031 -4.332031 13.59375 -3.28125 Z M 11.609375 -9 C 11.203125 -9.695312 10.648438 -10.25 9.953125 -10.65625 C 9.265625 -11.0625 8.519531 -11.265625 7.71875 -11.265625 C 6.894531 -11.265625 6.144531 -11.0625 5.46875 -10.65625 C 4.769531 -10.25 4.226562 -9.695312 3.84375 -9 C 3.425781 -8.289062 3.21875 -7.53125 3.21875 -6.71875 C 3.21875 -5.894531 3.425781 -5.140625 3.84375 -4.453125 C 4.226562 -3.742188 4.769531 -3.1875 5.46875 -2.78125 C 6.144531 -2.363281 6.894531 -2.15625 7.71875 -2.15625 C 8.53125 -2.15625 9.285156 -2.363281 9.984375 -2.78125 C 10.671875 -3.1875 11.210938 -3.742188 11.609375 -4.453125 C 12.003906 -5.140625 12.203125 -5.894531 12.203125 -6.71875 C 12.203125 -7.53125 12.003906 -8.289062 11.609375 -9 Z M 11.609375 -9 "/></g></g></g><g fill="#ffffff" fill-opacity="1"><g transform="translate(120.590197, 296.369513)"><g><path d="M 1 -13.421875 L 11.34375 -13.421875 L 11.34375 -11.125 L 7.3125 -11.125 L 7.3125 0 L 5.015625 0 L 5.015625 -11.125 L 1 -11.125 Z M 1 -13.421875 "/></g></g></g><g fill="#ffffff" fill-opacity="1"><g transform="translate(149.251533, 296.369513)"><g><path d="M 13.59375 -3.28125 C 12.976562 -2.21875 12.15625 -1.390625 11.125 -0.796875 C 10.070312 -0.179688 8.9375 0.125 7.71875 0.125 C 6.5 0.125 5.367188 -0.179688 4.328125 -0.796875 C 3.273438 -1.410156 2.445312 -2.25 1.84375 -3.3125 C 1.226562 -4.351562 0.921875 -5.488281 0.921875 -6.71875 C 0.921875 -7.96875 1.226562 -9.109375 1.84375 -10.140625 C 2.445312 -11.203125 3.273438 -12.039062 4.328125 -12.65625 C 5.359375 -13.25 6.488281 -13.546875 7.71875 -13.546875 C 8.957031 -13.546875 10.09375 -13.238281 11.125 -12.625 C 12.164062 -12.019531 12.992188 -11.191406 13.609375 -10.140625 C 14.210938 -9.078125 14.515625 -7.9375 14.515625 -6.71875 C 14.515625 -5.476562 14.207031 -4.332031 13.59375 -3.28125 Z M 11.609375 -9 C 11.203125 -9.695312 10.648438 -10.25 9.953125 -10.65625 C 9.265625 -11.0625 8.519531 -11.265625 7.71875 -11.265625 C 6.894531 -11.265625 6.144531 -11.0625 5.46875 -10.65625 C 4.769531 -10.25 4.226562 -9.695312 3.84375 -9 C 3.425781 -8.289062 3.21875 -7.53125 3.21875 -6.71875 C 3.21875 -5.894531 3.425781 -5.140625 3.84375 -4.453125 C 4.226562 -3.742188 4.769531 -3.1875 5.46875 -2.78125 C 6.144531 -2.363281 6.894531 -2.15625 7.71875 -2.15625 C 8.53125 -2.15625 9.285156 -2.363281 9.984375 -2.78125 C 10.671875 -3.1875 11.210938 -3.742188 11.609375 -4.453125 C 12.003906 -5.140625 12.203125 -5.894531 12.203125 -6.71875 C 12.203125 -7.53125 12.003906 -8.289062 11.609375 -9 Z M 11.609375 -9 "/></g></g></g><g fill="#ffffff" fill-opacity="1"><g transform="translate(180.991869, 296.369513)"><g><path d="M 12.71875 0 L 7.671875 0 C 6.453125 0 5.332031 -0.304688 4.3125 -0.921875 C 3.269531 -1.535156 2.453125 -2.363281 1.859375 -3.40625 C 1.242188 -4.4375 0.9375 -5.5625 0.9375 -6.78125 C 0.9375 -8.007812 1.242188 -9.144531 1.859375 -10.1875 C 2.472656 -11.226562 3.296875 -12.054688 4.328125 -12.671875 C 5.347656 -13.265625 6.460938 -13.5625 7.671875 -13.5625 C 8.609375 -13.5625 9.519531 -13.375 10.40625 -13 C 11.28125 -12.601562 12.019531 -12.054688 12.625 -11.359375 L 10.9375 -9.828125 C 10.519531 -10.296875 10.023438 -10.648438 9.453125 -10.890625 C 8.878906 -11.140625 8.285156 -11.265625 7.671875 -11.265625 C 6.867188 -11.265625 6.128906 -11.066406 5.453125 -10.671875 C 4.753906 -10.265625 4.207031 -9.722656 3.8125 -9.046875 C 3.414062 -8.347656 3.21875 -7.59375 3.21875 -6.78125 C 3.21875 -5.957031 3.425781 -5.207031 3.84375 -4.53125 C 4.226562 -3.832031 4.765625 -3.285156 5.453125 -2.890625 C 6.128906 -2.484375 6.867188 -2.28125 7.671875 -2.28125 L 10.421875 -2.28125 L 10.421875 -5.125 L 7.21875 -5.125 L 7.21875 -7.40625 L 12.71875 -7.40625 Z M 12.71875 0 "/></g></g></g><g fill="#ffffff" fill-opacity="1"><g transform="translate(211.712673, 296.369513)"><g><path d="M 8.484375 0 L 3.984375 -5.921875 L 3.984375 0 L 1.6875 0 L 1.671875 -13.421875 L 6.59375 -13.421875 C 7.25 -13.421875 7.867188 -13.320312 8.453125 -13.125 C 9.023438 -12.90625 9.523438 -12.597656 9.953125 -12.203125 C 10.390625 -11.816406 10.722656 -11.378906 10.953125 -10.890625 C 11.191406 -10.390625 11.3125 -9.867188 11.3125 -9.328125 C 11.3125 -8.523438 11.070312 -7.796875 10.59375 -7.140625 C 10.101562 -6.484375 9.503906 -6.03125 8.796875 -5.78125 C 8.546875 -5.675781 8.265625 -5.59375 7.953125 -5.53125 C 7.628906 -5.457031 7.394531 -5.421875 7.25 -5.421875 L 11.328125 0 Z M 3.984375 -11.125 L 3.984375 -7.515625 L 5.984375 -7.515625 C 6.804688 -7.515625 7.441406 -7.625 7.890625 -7.84375 C 8.203125 -7.957031 8.46875 -8.160156 8.6875 -8.453125 C 8.894531 -8.722656 9 -9.015625 9 -9.328125 C 9 -9.804688 8.78125 -10.226562 8.34375 -10.59375 C 7.90625 -10.945312 7.320312 -11.125 6.59375 -11.125 Z M 3.984375 -11.125 "/></g></g></g><g fill="#ffffff" fill-opacity="1"><g transform="translate(240.577932, 296.369513)"><g><path d="M 9.734375 -1.84375 L 4.3125 -1.84375 L 3.453125 0 L 0.921875 0 L 7.140625 -13.421875 L 13.0625 0 L 10.546875 0 Z M 8.71875 -4.140625 L 7.078125 -7.859375 L 5.359375 -4.140625 Z M 8.71875 -4.140625 "/></g></g></g><g fill="#ffffff" fill-opacity="1"><g transform="translate(270.87051, 296.369513)"><g><path d="M 1.671875 0 L 1.671875 -13.421875 L 6.671875 -13.421875 C 7.273438 -13.421875 7.851562 -13.328125 8.40625 -13.140625 C 8.945312 -12.929688 9.4375 -12.644531 9.875 -12.28125 C 10.320312 -11.882812 10.671875 -11.4375 10.921875 -10.9375 C 11.160156 -10.414062 11.28125 -9.878906 11.28125 -9.328125 C 11.28125 -8.191406 10.8125 -7.195312 9.875 -6.34375 C 9.4375 -5.976562 8.945312 -5.703125 8.40625 -5.515625 C 7.851562 -5.304688 7.273438 -5.203125 6.671875 -5.203125 L 3.953125 -5.203125 L 3.984375 0 Z M 3.953125 -7.515625 L 6.671875 -7.515625 C 7.367188 -7.515625 7.929688 -7.707031 8.359375 -8.09375 C 8.773438 -8.425781 8.984375 -8.835938 8.984375 -9.328125 C 8.984375 -9.816406 8.765625 -10.238281 8.328125 -10.59375 C 7.890625 -10.945312 7.335938 -11.125 6.671875 -11.125 L 3.953125 -11.125 Z M 3.953125 -7.515625 "/></g></g></g><g fill="#ffffff" fill-opacity="1"><g transform="translate(299.593027, 296.369513)"><g><path d="M 3.984375 -5.578125 L 3.984375 0 L 1.6875 0 L 1.6875 -13.421875 L 3.984375 -13.421875 L 3.984375 -7.875 L 9.59375 -7.875 L 9.59375 -13.421875 L 11.875 -13.421875 L 11.890625 0 L 9.59375 0 L 9.59375 -5.578125 Z M 3.984375 -5.578125 "/></g></g></g><g fill="#ffffff" fill-opacity="1"><g transform="translate(329.4982, 296.369513)"><g><path d="M 3.609375 -13.421875 L 7.609375 -6.921875 L 11.65625 -13.421875 L 14.40625 -13.421875 L 8.75 -4.484375 L 8.75 0 L 6.46875 0 L 6.46875 -4.484375 L 0.875 -13.421875 Z M 3.609375 -13.421875 "/></g></g></g><path fill="#ffffff" d="M 152.441406 100.695312 C 141.871094 100.695312 133.269531 92.046875 133.269531 81.417969 C 133.269531 70.789062 141.871094 62.144531 152.441406 62.144531 C 163.011719 62.144531 171.613281 70.789062 171.613281 81.417969 C 171.613281 92.046875 163.011719 100.695312 152.441406 100.695312 Z M 152.441406 62.976562 C 142.328125 62.976562 134.101562 71.25 134.101562 81.417969 C 134.101562 91.589844 142.328125 99.863281 152.441406 99.863281 C 162.554688 99.863281 170.78125 91.589844 170.78125 81.417969 C 170.78125 71.25 162.554688 62.976562 152.441406 62.976562 Z M 152.441406 62.976562 " fill-opacity="1" fill-rule="nonzero"/><path fill="#ffffff" d="M 202.75 212.496094 C 202.574219 212.496094 202.410156 212.386719 202.351562 212.210938 L 184.417969 158.257812 C 182.613281 152.835938 180.570312 146.695312 176.257812 142.378906 C 173.542969 139.671875 170.050781 137.816406 166.675781 136.027344 C 165.136719 135.210938 163.550781 134.371094 162.042969 133.453125 C 153.460938 128.230469 147.046875 120.382812 140.847656 112.796875 C 137.984375 109.292969 135.023438 105.671875 133.367188 101.324219 C 131.5 96.425781 131.824219 91.394531 134.234375 87.859375 C 134.363281 87.671875 134.621094 87.621094 134.8125 87.75 C 135 87.878906 135.050781 88.140625 134.921875 88.332031 C 132.664062 91.636719 132.375 96.382812 134.144531 101.023438 C 135.753906 105.25 138.671875 108.820312 141.492188 112.269531 C 147.648438 119.804688 154.011719 127.59375 162.476562 132.742188 C 163.960938 133.644531 165.539062 134.484375 167.066406 135.292969 C 170.496094 137.113281 174.042969 138.992188 176.84375 141.789062 C 181.300781 146.242188 183.375 152.488281 185.207031 157.996094 L 203.144531 211.949219 C 203.214844 212.167969 203.097656 212.402344 202.878906 212.476562 C 202.835938 212.492188 202.792969 212.496094 202.746094 212.496094 Z M 202.75 212.496094 " fill-opacity="1" fill-rule="nonzero"/><path fill="#ffffff" d="M 236.511719 200.605469 C 236.398438 200.605469 236.289062 200.5625 236.207031 200.476562 C 227.257812 190.914062 219.628906 179.039062 212.878906 164.167969 C 207.417969 152.136719 203.132812 139.492188 198.859375 126.511719 C 198.207031 124.53125 197.660156 122.511719 197.230469 120.507812 L 196.953125 119.222656 C 194.925781 109.738281 192.832031 99.929688 188.207031 91.210938 C 187.871094 90.578125 187.511719 89.9375 187.167969 89.316406 C 185.984375 87.1875 184.757812 84.984375 184.078125 82.589844 C 184.027344 82.40625 183.976562 82.222656 183.925781 82.035156 C 183.503906 80.480469 183.066406 78.871094 181.597656 78.390625 C 180.578125 78.058594 179.433594 78.414062 178.679688 79.292969 C 177.128906 81.113281 177.390625 83.503906 177.796875 85.800781 C 178.621094 90.503906 179.855469 95.207031 181.464844 99.777344 L 181.523438 99.941406 C 182.007812 101.316406 182.511719 102.738281 182.265625 104.292969 C 182.128906 105.136719 181.761719 105.863281 181.199219 106.390625 C 179.472656 108.015625 176.996094 107.085938 175.28125 106.246094 C 170.621094 103.964844 166.152344 101.230469 162 98.121094 C 161.816406 97.984375 161.777344 97.722656 161.914062 97.539062 C 162.054688 97.355469 162.316406 97.316406 162.5 97.453125 C 166.613281 100.53125 171.035156 103.238281 175.648438 105.5 C 178.019531 106.664062 179.601562 106.753906 180.628906 105.785156 C 181.054688 105.386719 181.335938 104.824219 181.441406 104.164062 C 181.65625 102.816406 181.191406 101.496094 180.738281 100.21875 L 180.683594 100.054688 C 179.054688 95.441406 177.808594 90.695312 176.976562 85.945312 C 176.539062 83.457031 176.261719 80.847656 178.050781 78.753906 C 179.023438 77.613281 180.519531 77.160156 181.859375 77.601562 C 183.753906 78.222656 184.273438 80.132812 184.730469 81.820312 C 184.78125 82.003906 184.832031 82.183594 184.882812 82.363281 C 185.535156 84.667969 186.738281 86.828125 187.898438 88.914062 C 188.246094 89.539062 188.605469 90.183594 188.945312 90.824219 C 193.625 99.644531 195.734375 109.507812 197.773438 119.054688 L 198.046875 120.339844 C 198.46875 122.3125 199.007812 124.300781 199.652344 126.253906 C 203.917969 139.210938 208.195312 151.832031 213.640625 163.824219 C 220.351562 178.613281 227.933594 190.414062 236.816406 199.90625 C 236.972656 200.074219 236.964844 200.339844 236.796875 200.496094 C 236.714844 200.574219 236.613281 200.609375 236.511719 200.609375 Z M 236.511719 200.605469 " fill-opacity="1" fill-rule="nonzero"/><path fill="#ffffff" d="M 152.441406 98.695312 C 142.96875 98.695312 135.261719 90.949219 135.261719 81.421875 C 135.261719 71.894531 142.96875 64.148438 152.441406 64.148438 C 161.914062 64.148438 169.621094 71.894531 169.621094 81.421875 C 169.621094 90.949219 161.914062 98.695312 152.441406 98.695312 Z M 152.441406 64.980469 C 143.425781 64.980469 136.09375 72.355469 136.09375 81.421875 C 136.09375 90.488281 143.425781 97.863281 152.441406 97.863281 C 161.457031 97.863281 168.789062 90.488281 168.789062 81.421875 C 168.789062 72.355469 161.457031 64.980469 152.441406 64.980469 Z M 152.441406 64.980469 " fill-opacity="1" fill-rule="nonzero"/><path fill="#ffffff" d="M 152.441406 96.25 C 144.308594 96.25 137.691406 89.597656 137.691406 81.421875 C 137.691406 73.246094 144.308594 66.589844 152.441406 66.589844 C 160.574219 66.589844 167.191406 73.242188 167.191406 81.421875 C 167.191406 89.601562 160.574219 96.25 152.441406 96.25 Z M 152.441406 67.421875 C 144.765625 67.421875 138.523438 73.703125 138.523438 81.421875 C 138.523438 89.140625 144.765625 95.417969 152.441406 95.417969 C 160.117188 95.417969 166.359375 89.140625 166.359375 81.421875 C 166.359375 73.703125 160.117188 67.421875 152.441406 67.421875 Z M 152.441406 67.421875 " fill-opacity="1" fill-rule="nonzero"/><path fill="#ffffff" d="M 152.441406 93.914062 C 145.589844 93.914062 140.011719 88.3125 140.011719 81.421875 C 140.011719 74.53125 145.589844 68.925781 152.441406 68.925781 C 159.292969 68.925781 164.867188 74.53125 164.867188 81.421875 C 164.867188 88.308594 159.292969 93.914062 152.441406 93.914062 Z M 152.441406 69.757812 C 146.046875 69.757812 140.847656 74.992188 140.847656 81.421875 C 140.847656 87.851562 146.046875 93.082031 152.441406 93.082031 C 158.832031 93.082031 164.035156 87.851562 164.035156 81.421875 C 164.035156 74.992188 158.832031 69.757812 152.441406 69.757812 Z M 152.441406 69.757812 " fill-opacity="1" fill-rule="nonzero"/><path fill="#ffffff" d="M 152.441406 89.355469 C 148.089844 89.355469 144.550781 85.796875 144.550781 81.421875 C 144.550781 77.046875 148.089844 73.488281 152.441406 73.488281 C 156.792969 73.488281 160.332031 77.046875 160.332031 81.421875 C 160.332031 85.796875 156.792969 89.355469 152.441406 89.355469 Z M 152.441406 74.320312 C 148.550781 74.320312 145.382812 77.507812 145.382812 81.421875 C 145.382812 85.335938 148.550781 88.523438 152.441406 88.523438 C 156.332031 88.523438 159.5 85.335938 159.5 81.421875 C 159.5 77.507812 156.332031 74.320312 152.441406 74.320312 Z M 152.441406 74.320312 " fill-opacity="1" fill-rule="nonzero"/><path fill="#ffffff" d="M 172.652344 122.765625 C 172.492188 122.765625 172.34375 122.675781 172.273438 122.519531 C 170.859375 119.347656 169.089844 116.355469 167.007812 113.609375 C 160.808594 110.699219 155.445312 106.171875 151.5 100.515625 C 151.390625 100.359375 151.402344 100.148438 151.53125 100.003906 C 151.65625 99.859375 151.863281 99.820312 152.035156 99.90625 C 161.324219 104.714844 168.78125 112.625 173.035156 122.179688 C 173.128906 122.390625 173.035156 122.636719 172.824219 122.730469 C 172.769531 122.753906 172.710938 122.765625 172.652344 122.765625 Z M 153.28125 101.535156 C 156.660156 105.910156 160.933594 109.511719 165.792969 112.070312 C 162.304688 107.851562 158.066406 104.265625 153.28125 101.535156 Z M 153.28125 101.535156 " fill-opacity="1" fill-rule="nonzero"/><path fill="#ffffff" d="M 161.441406 125.277344 C 161.371094 125.277344 161.296875 125.257812 161.230469 125.21875 C 159.550781 124.210938 158.546875 122.503906 157.578125 120.847656 C 157.441406 120.621094 157.308594 120.394531 157.175781 120.171875 C 155.046875 116.621094 152.253906 113.429688 149.554688 110.339844 C 149.003906 109.707031 148.449219 109.074219 147.898438 108.4375 C 145.085938 105.171875 141.941406 101.136719 139.960938 95.984375 C 139.878906 95.769531 139.984375 95.527344 140.199219 95.445312 C 140.414062 95.363281 140.65625 95.472656 140.738281 95.6875 C 142.671875 100.722656 145.761719 104.683594 148.53125 107.894531 C 149.078125 108.527344 149.628906 109.160156 150.179688 109.792969 C 152.90625 112.90625 155.722656 116.128906 157.890625 119.746094 C 158.027344 119.96875 158.160156 120.199219 158.292969 120.429688 C 159.210938 121.992188 160.160156 123.605469 161.65625 124.503906 C 161.855469 124.621094 161.917969 124.878906 161.800781 125.074219 C 161.722656 125.207031 161.582031 125.277344 161.441406 125.277344 Z M 161.441406 125.277344 " fill-opacity="1" fill-rule="nonzero"/><path fill="#ffffff" d="M 153.324219 123.550781 C 153.179688 123.550781 153.042969 123.472656 152.964844 123.339844 C 150.667969 119.320312 147.421875 115.839844 144.285156 112.476562 C 143.800781 111.957031 143.316406 111.4375 142.835938 110.917969 C 139.429688 107.222656 135.628906 102.839844 133.671875 97.539062 C 133.007812 95.746094 132.691406 94.171875 132.703125 92.722656 C 132.71875 91.042969 133.394531 89.171875 134.472656 87.835938 C 134.617188 87.65625 134.878906 87.628906 135.058594 87.773438 C 135.238281 87.917969 135.265625 88.179688 135.121094 88.359375 C 134.171875 89.539062 133.550781 91.253906 133.539062 92.730469 C 133.527344 94.074219 133.828125 95.554688 134.453125 97.25 C 136.359375 102.410156 140.097656 106.71875 143.449219 110.351562 C 143.929688 110.871094 144.410156 111.390625 144.894531 111.910156 C 148.066406 115.308594 151.34375 118.824219 153.6875 122.925781 C 153.800781 123.125 153.730469 123.382812 153.53125 123.496094 C 153.46875 123.53125 153.394531 123.550781 153.324219 123.550781 Z M 153.324219 123.550781 " fill-opacity="1" fill-rule="nonzero"/><path fill="#ffffff" d="M 89.375 197.136719 C 89.316406 197.136719 89.257812 197.121094 89.199219 197.097656 C 88.992188 196.996094 88.902344 196.75 89 196.542969 L 112.285156 146.832031 C 116.335938 138.1875 120.925781 128.390625 120.640625 118.167969 C 120.488281 112.679688 118.917969 107.203125 117.402344 101.90625 C 115.425781 95.015625 113.386719 87.894531 114.472656 80.714844 C 115.472656 74.105469 119.132812 68.042969 124.511719 64.078125 C 129.894531 60.113281 136.769531 58.410156 143.378906 59.414062 C 144.183594 59.535156 145.308594 59.804688 145.75 60.746094 C 146.230469 61.761719 145.601562 62.933594 144.714844 63.476562 C 143.957031 63.9375 143.089844 64.042969 142.253906 64.140625 L 142.054688 64.167969 C 132.554688 65.328125 123.910156 71.734375 120.027344 80.476562 C 119.933594 80.6875 119.6875 80.78125 119.476562 80.691406 C 119.265625 80.597656 119.171875 80.351562 119.265625 80.140625 C 123.265625 71.128906 132.171875 64.535156 141.953125 63.339844 L 142.15625 63.3125 C 142.90625 63.222656 143.675781 63.132812 144.28125 62.765625 C 144.84375 62.417969 145.265625 61.667969 144.996094 61.101562 C 144.722656 60.519531 143.871094 60.328125 143.253906 60.238281 C 136.863281 59.265625 130.210938 60.914062 125.007812 64.75 C 119.804688 68.582031 116.261719 74.449219 115.296875 80.839844 C 114.234375 87.839844 116.253906 94.875 118.203125 101.679688 C 119.734375 107.023438 121.320312 112.554688 121.472656 118.144531 C 121.761719 128.566406 117.128906 138.457031 113.042969 147.183594 L 89.753906 196.894531 C 89.683594 197.046875 89.535156 197.132812 89.375 197.132812 Z M 89.375 197.136719 " fill-opacity="1" fill-rule="nonzero"/><path fill="#ffffff" d="M 123.3125 111.289062 C 123.082031 111.289062 122.894531 111.105469 122.894531 110.875 L 122.792969 96.792969 C 122.769531 93.410156 122.746094 89.910156 123.875 86.601562 C 125.050781 83.175781 127.355469 80.367188 129.230469 78.308594 C 131.167969 76.183594 133.28125 74.1875 135.515625 72.375 C 135.695312 72.230469 135.957031 72.257812 136.101562 72.4375 C 136.246094 72.613281 136.21875 72.878906 136.039062 73.023438 C 133.839844 74.808594 131.753906 76.773438 129.847656 78.867188 C 128.023438 80.871094 125.789062 83.585938 124.664062 86.871094 C 123.582031 90.042969 123.605469 93.472656 123.628906 96.785156 L 123.730469 110.867188 C 123.730469 111.097656 123.546875 111.285156 123.3125 111.289062 Z M 123.3125 111.289062 " fill-opacity="1" fill-rule="nonzero"/><path fill="#ffffff" d="M 117.652344 72.726562 C 117.644531 72.726562 117.632812 72.726562 117.621094 72.726562 C 117.390625 72.707031 117.21875 72.507812 117.238281 72.277344 C 117.480469 69.097656 117.785156 65.136719 119.878906 62.109375 C 121.675781 59.507812 124.730469 57.617188 129.21875 56.324219 C 130.335938 56.003906 131.480469 55.722656 132.589844 55.453125 C 134.957031 54.878906 137.402344 54.285156 139.621094 53.253906 C 140.863281 52.675781 142.042969 51.960938 143.128906 51.128906 C 143.59375 50.769531 144.558594 50.027344 145.472656 50.5 C 146.101562 50.828125 146.382812 51.589844 146.265625 52.636719 C 145.90625 55.78125 143.804688 58.628906 140.90625 59.898438 C 140.699219 59.992188 140.449219 59.898438 140.359375 59.6875 C 140.265625 59.476562 140.363281 59.230469 140.574219 59.136719 C 143.203125 57.984375 145.109375 55.394531 145.4375 52.542969 C 145.464844 52.296875 145.523438 51.46875 145.085938 51.242188 C 144.699219 51.039062 144.132812 51.40625 143.636719 51.789062 C 142.503906 52.660156 141.269531 53.410156 139.972656 54.011719 C 137.675781 55.074219 135.191406 55.679688 132.789062 56.265625 C 131.6875 56.53125 130.546875 56.808594 129.449219 57.125 C 125.152344 58.363281 122.246094 60.148438 120.5625 62.582031 C 118.601562 65.425781 118.316406 69.101562 118.066406 72.34375 C 118.050781 72.5625 117.867188 72.726562 117.652344 72.726562 Z M 117.652344 72.726562 " fill-opacity="1" fill-rule="nonzero"/><path fill="#ffffff" d="M 121.417969 204.488281 C 121.367188 204.488281 121.316406 204.480469 121.265625 204.460938 C 121.050781 204.375 120.945312 204.132812 121.03125 203.917969 C 131.394531 177.589844 139.914062 119.996094 138.519531 114.101562 C 138.191406 112.726562 137.515625 111.421875 136.863281 110.15625 C 136.75 109.9375 136.636719 109.714844 136.523438 109.496094 C 133.804688 104.152344 129.789062 93.648438 133.398438 83.3125 C 133.476562 83.09375 133.714844 82.980469 133.929688 83.058594 C 134.148438 83.132812 134.261719 83.371094 134.1875 83.589844 C 130.679688 93.628906 134.609375 103.894531 137.265625 109.117188 C 137.375 109.335938 137.488281 109.554688 137.601562 109.773438 C 138.28125 111.082031 138.980469 112.4375 139.328125 113.910156 C 140.054688 116.984375 138.183594 133.371094 135.058594 151.210938 C 131.1875 173.34375 126.355469 192.667969 121.804688 204.226562 C 121.742188 204.390625 121.585938 204.488281 121.417969 204.488281 Z M 121.417969 204.488281 " fill-opacity="1" fill-rule="nonzero"/><path fill="#ffffff" d="M 190.90625 96.695312 C 190.699219 96.695312 190.515625 96.542969 190.492188 96.328125 C 189.777344 90.328125 189.601562 84.1875 189.429688 78.25 C 189.351562 75.609375 189.269531 72.875 189.144531 70.195312 C 189.109375 69.453125 189.003906 68.652344 188.484375 68.347656 C 188.199219 68.175781 187.792969 68.167969 187.433594 68.164062 L 177.550781 67.988281 C 177.347656 67.984375 177.179688 67.832031 177.148438 67.632812 L 177.128906 67.496094 C 176.785156 65.292969 176.429688 63.015625 175.585938 60.917969 C 174.640625 58.570312 173.136719 56.757812 171.347656 55.816406 C 169.316406 54.75 166.847656 54.707031 164.667969 54.667969 C 162.113281 54.625 159.214844 54.574219 156.742188 55.675781 C 153.878906 56.949219 151.824219 59.679688 150.164062 62.078125 C 156.941406 61.570312 163.863281 61.539062 171.296875 61.984375 C 171.523438 62 171.699219 62.199219 171.6875 62.425781 C 171.671875 62.65625 171.472656 62.832031 171.246094 62.820312 C 163.53125 62.355469 156.375 62.40625 149.359375 62.976562 C 149.199219 62.992188 149.046875 62.910156 148.964844 62.773438 C 148.882812 62.632812 148.890625 62.460938 148.980469 62.328125 C 150.785156 59.695312 153.03125 56.414062 156.402344 54.914062 C 159.042969 53.738281 162.039062 53.789062 164.683594 53.835938 C 166.953125 53.875 169.527344 53.917969 171.734375 55.082031 C 173.695312 56.113281 175.339844 58.078125 176.359375 60.609375 C 177.210938 62.726562 177.578125 64.976562 177.917969 67.160156 L 187.449219 67.332031 C 187.886719 67.339844 188.433594 67.347656 188.910156 67.628906 C 189.769531 68.140625 189.929688 69.195312 189.976562 70.160156 C 190.101562 72.847656 190.183594 75.582031 190.257812 78.226562 C 190.433594 84.144531 190.609375 90.265625 191.320312 96.230469 C 191.347656 96.460938 191.183594 96.667969 190.953125 96.695312 C 190.9375 96.699219 190.921875 96.699219 190.90625 96.699219 Z M 190.90625 96.695312 " fill-opacity="1" fill-rule="nonzero"/><path fill="#ffffff" d="M 193.828125 75.5625 C 192.503906 75.5625 191.179688 75.292969 189.960938 74.734375 C 189.75 74.636719 189.65625 74.390625 189.753906 74.183594 C 189.847656 73.972656 190.097656 73.878906 190.304688 73.976562 C 192.1875 74.835938 194.402344 74.925781 196.402344 74.332031 C 194.460938 74.617188 192.453125 74.40625 190.605469 73.703125 C 190.160156 73.675781 189.792969 73.503906 189.542969 73.183594 C 189.421875 73.03125 189.421875 72.816406 189.546875 72.664062 C 189.667969 72.511719 189.878906 72.464844 190.054688 72.550781 C 190.285156 72.667969 190.527344 72.773438 190.769531 72.867188 C 191.019531 72.859375 191.304688 72.78125 191.558594 72.679688 C 192.761719 72.195312 193.855469 71.429688 194.726562 70.46875 C 194.847656 70.332031 195.046875 70.292969 195.210938 70.367188 C 195.375 70.445312 195.472656 70.621094 195.449219 70.804688 C 195.339844 71.566406 194.996094 72.28125 194.496094 72.863281 C 195.347656 72.488281 196.101562 71.886719 196.644531 71.125 C 196.761719 70.957031 196.988281 70.902344 197.171875 70.996094 C 197.359375 71.089844 197.445312 71.304688 197.375 71.503906 C 197.242188 71.894531 197.0625 72.277344 196.847656 72.632812 C 197.335938 72.289062 197.789062 71.886719 198.183594 71.4375 C 198.335938 71.261719 198.601562 71.246094 198.773438 71.398438 C 198.945312 71.550781 198.960938 71.8125 198.8125 71.988281 C 198.382812 72.472656 197.902344 72.90625 197.378906 73.277344 C 198.320312 73.042969 199.226562 72.683594 200.058594 72.195312 C 200.242188 72.09375 200.472656 72.136719 200.601562 72.304688 C 200.726562 72.472656 200.710938 72.707031 200.5625 72.855469 C 198.777344 74.617188 196.300781 75.5625 193.828125 75.5625 Z M 194.945312 73.570312 C 194.921875 73.582031 194.902344 73.59375 194.878906 73.601562 C 194.890625 73.601562 194.898438 73.601562 194.910156 73.601562 C 194.921875 73.59375 194.933594 73.582031 194.945312 73.570312 Z M 192.195312 73.316406 C 192.21875 73.320312 192.242188 73.324219 192.265625 73.332031 C 192.273438 73.328125 192.285156 73.324219 192.292969 73.324219 C 192.871094 73.167969 193.394531 72.835938 193.796875 72.398438 C 193.292969 72.753906 192.757812 73.0625 192.195312 73.316406 Z M 192.195312 73.316406 " fill-opacity="1" fill-rule="nonzero"/><path fill="#ffffff" d="M 194.152344 79.535156 C 194.011719 79.535156 193.878906 79.464844 193.796875 79.339844 C 193.09375 78.222656 191.730469 77.53125 190.410156 77.632812 C 190.183594 77.644531 189.980469 77.476562 189.964844 77.246094 C 189.949219 77.015625 190.121094 76.816406 190.351562 76.800781 C 191.96875 76.683594 193.636719 77.523438 194.503906 78.894531 C 194.625 79.089844 194.566406 79.347656 194.375 79.472656 C 194.304688 79.515625 194.226562 79.535156 194.152344 79.535156 Z M 194.152344 79.535156 " fill-opacity="1" fill-rule="nonzero"/><path fill="#ffffff" d="M 194.894531 78.875 C 194.710938 78.875 194.539062 78.753906 194.492188 78.566406 C 194.328125 77.949219 193.828125 77.425781 193.21875 77.238281 C 193 77.167969 192.875 76.933594 192.945312 76.714844 C 193.011719 76.496094 193.246094 76.371094 193.464844 76.441406 C 194.34375 76.714844 195.0625 77.464844 195.296875 78.351562 C 195.355469 78.574219 195.222656 78.804688 195 78.863281 C 194.964844 78.871094 194.929688 78.875 194.894531 78.875 Z M 194.894531 78.875 " fill-opacity="1" fill-rule="nonzero"/><path fill="#ffffff" d="M 196.222656 78.140625 C 196.039062 78.140625 195.875 78.023438 195.820312 77.84375 C 195.671875 77.335938 195.25 76.910156 194.738281 76.757812 C 194.519531 76.695312 194.394531 76.460938 194.457031 76.242188 C 194.523438 76.019531 194.753906 75.894531 194.972656 75.960938 C 195.757812 76.191406 196.390625 76.820312 196.621094 77.609375 C 196.683594 77.828125 196.558594 78.0625 196.335938 78.125 C 196.296875 78.136719 196.257812 78.140625 196.21875 78.140625 Z M 196.222656 78.140625 " fill-opacity="1" fill-rule="nonzero"/><path fill="#ffffff" d="M 197.84375 77.113281 C 197.683594 77.113281 197.535156 77.023438 197.460938 76.871094 C 197.339844 76.605469 197.046875 76.402344 196.753906 76.386719 C 196.523438 76.371094 196.351562 76.175781 196.363281 75.945312 C 196.378906 75.714844 196.574219 75.539062 196.804688 75.554688 C 197.410156 75.59375 197.96875 75.972656 198.21875 76.523438 C 198.316406 76.730469 198.226562 76.980469 198.015625 77.078125 C 197.960938 77.101562 197.902344 77.117188 197.84375 77.117188 Z M 197.84375 77.113281 " fill-opacity="1" fill-rule="nonzero"/><path fill="#ffffff" d="M 186.53125 67.953125 C 186.507812 67.953125 186.484375 67.953125 186.460938 67.949219 C 186.234375 67.910156 186.082031 67.695312 186.121094 67.46875 C 186.183594 67.089844 186.230469 66.628906 186.015625 66.4375 C 185.875 66.308594 185.601562 66.285156 185.332031 66.273438 C 183.847656 66.199219 182.34375 66.183594 180.863281 66.234375 C 180.65625 66.242188 180.445312 66.257812 180.34375 66.339844 C 180.203125 66.460938 180.210938 66.78125 180.371094 67.265625 C 180.441406 67.484375 180.324219 67.71875 180.105469 67.792969 C 179.882812 67.863281 179.648438 67.746094 179.578125 67.523438 C 179.472656 67.210938 179.160156 66.253906 179.804688 65.707031 C 180.132812 65.425781 180.570312 65.410156 180.832031 65.402344 C 182.339844 65.351562 183.867188 65.363281 185.371094 65.4375 C 185.679688 65.453125 186.199219 65.480469 186.574219 65.816406 C 187.152344 66.339844 187.011719 67.195312 186.941406 67.605469 C 186.90625 67.808594 186.730469 67.953125 186.53125 67.953125 Z M 186.53125 67.953125 " fill-opacity="1" fill-rule="nonzero"/><path fill="#ffffff" d="M 146.355469 207.855469 C 146.222656 207.855469 146.09375 207.792969 146.011719 207.675781 L 145.578125 207.050781 C 143.003906 203.339844 140.339844 199.507812 138.582031 195.261719 C 137.109375 191.699219 135.691406 186.316406 137.3125 180.902344 C 138.164062 178.058594 139.785156 175.503906 141.347656 173.035156 C 143.09375 170.277344 144.902344 167.425781 145.5625 164.242188 C 146.5625 159.398438 144.828125 154.480469 143.152344 149.730469 C 142.660156 148.339844 142.152344 146.898438 141.722656 145.488281 C 138.351562 134.417969 139.214844 122.265625 139.976562 111.542969 C 139.992188 111.3125 140.191406 111.144531 140.421875 111.15625 C 140.652344 111.175781 140.824219 111.375 140.808594 111.601562 C 140.050781 122.25 139.191406 134.320312 142.519531 145.242188 C 142.945312 146.640625 143.449219 148.070312 143.9375 149.449219 C 145.652344 154.3125 147.421875 159.335938 146.375 164.410156 C 145.6875 167.742188 143.839844 170.660156 142.050781 173.480469 C 140.515625 175.902344 138.929688 178.410156 138.109375 181.140625 C 136.558594 186.320312 137.929688 191.503906 139.351562 194.941406 C 141.070312 199.105469 143.710938 202.902344 146.261719 206.574219 L 146.695312 207.199219 C 146.824219 207.390625 146.777344 207.648438 146.589844 207.78125 C 146.515625 207.832031 146.433594 207.855469 146.351562 207.855469 Z M 146.355469 207.855469 " fill-opacity="1" fill-rule="nonzero"/><path fill="#ffffff" d="M 167.425781 225.5625 C 167.375 225.5625 167.328125 225.554688 167.277344 225.535156 C 162.339844 223.679688 160.652344 217.445312 160.085938 213.894531 C 159.753906 211.820312 159.597656 209.695312 159.445312 207.640625 C 159.246094 204.945312 159.042969 202.15625 158.4375 199.492188 C 157.53125 195.496094 155.71875 191.695312 153.960938 188.019531 C 152.109375 184.136719 150.191406 180.125 149.3125 175.835938 C 147.816406 168.527344 149.53125 160.671875 151.1875 153.074219 C 151.554688 151.40625 151.898438 149.828125 152.210938 148.246094 C 154.515625 136.609375 153.5625 128.460938 149.222656 122.597656 C 149.085938 122.414062 149.125 122.152344 149.308594 122.015625 C 149.492188 121.878906 149.753906 121.917969 149.890625 122.101562 C 152.375 125.453125 153.8125 129.695312 154.164062 134.710938 C 154.441406 138.664062 154.070312 143.144531 153.027344 148.410156 C 152.714844 149.996094 152.351562 151.652344 152.003906 153.253906 C 150.363281 160.765625 148.667969 168.535156 150.132812 175.667969 C 150.988281 179.855469 152.882812 183.824219 154.714844 187.660156 C 156.492188 191.378906 158.324219 195.222656 159.25 199.308594 C 159.867188 202.035156 160.078125 204.851562 160.277344 207.578125 C 160.429688 209.617188 160.582031 211.722656 160.910156 213.761719 C 161.402344 216.851562 162.769531 222.074219 166.492188 224.242188 C 161.464844 214.300781 159.914062 206.300781 161.605469 199.140625 C 162.375 195.886719 163.859375 192.785156 165.292969 189.785156 C 165.597656 189.152344 165.898438 188.523438 166.191406 187.894531 C 165.691406 187.152344 165.191406 186.410156 164.695312 185.683594 C 162 181.71875 159.21875 177.621094 157.3125 173.125 C 152.394531 161.539062 153.117188 147.898438 159.527344 131.417969 C 159.585938 131.261719 159.734375 131.160156 159.902344 131.152344 C 160.070312 131.144531 160.226562 131.246094 160.292969 131.398438 C 161.945312 135.050781 161.441406 138.660156 160.90625 142.480469 C 160.574219 144.859375 160.230469 147.320312 160.457031 149.800781 C 160.863281 154.277344 163.097656 158.421875 165.261719 162.433594 C 167.636719 166.839844 170.09375 171.398438 170.179688 176.449219 C 170.246094 180.464844 168.808594 184.207031 167.144531 187.820312 C 168.148438 189.332031 169.140625 190.875 170.058594 192.441406 C 173.164062 197.753906 176.335938 205.425781 174.703125 212.835938 C 177.910156 208.269531 177.925781 202.464844 177.605469 199.207031 C 177.230469 195.433594 176.199219 191.695312 175.199219 188.078125 C 174.753906 186.46875 174.292969 184.800781 173.894531 183.144531 C 172.855469 178.828125 171.710938 172.417969 173.78125 166.585938 C 174.316406 165.070312 175.058594 163.621094 175.777344 162.21875 C 176.738281 160.34375 177.730469 158.40625 178.195312 156.351562 C 179.707031 149.691406 179.300781 144.25 172.410156 139.363281 C 172.222656 139.230469 172.179688 138.96875 172.3125 138.78125 C 172.445312 138.59375 172.707031 138.550781 172.894531 138.683594 C 180.589844 144.140625 180.378906 150.488281 179.007812 156.535156 C 178.519531 158.691406 177.503906 160.679688 176.519531 162.597656 C 175.8125 163.976562 175.082031 165.398438 174.566406 166.863281 C 172.570312 172.488281 173.691406 178.738281 174.703125 182.949219 C 175.097656 184.589844 175.558594 186.25 176.003906 187.855469 C 177.011719 191.507812 178.054688 195.28125 178.433594 199.125 C 178.804688 202.902344 178.734375 209.980469 174.066406 214.933594 C 173.933594 215.078125 173.71875 215.109375 173.550781 215.007812 C 173.382812 214.90625 173.304688 214.699219 173.371094 214.515625 C 176.003906 206.824219 172.632812 198.496094 169.339844 192.863281 C 168.519531 191.460938 167.632812 190.074219 166.730469 188.710938 C 166.503906 189.191406 166.273438 189.671875 166.042969 190.148438 C 164.628906 193.109375 163.164062 196.171875 162.417969 199.335938 C 160.710938 206.550781 162.417969 214.695312 167.792969 224.957031 C 167.875 225.109375 167.851562 225.296875 167.734375 225.425781 C 167.65625 225.515625 167.539062 225.566406 167.421875 225.566406 Z M 159.921875 132.714844 C 153.953125 148.535156 153.351562 161.65625 158.078125 172.800781 C 159.957031 177.21875 162.714844 181.28125 165.386719 185.210938 C 165.789062 185.804688 166.195312 186.40625 166.601562 187.007812 C 168.171875 183.554688 169.410156 180.160156 169.347656 176.464844 C 169.265625 171.613281 166.859375 167.144531 164.53125 162.828125 C 162.328125 158.742188 160.050781 154.519531 159.628906 149.875 C 159.394531 147.300781 159.746094 144.789062 160.085938 142.363281 C 160.550781 139.015625 160.996094 135.839844 159.925781 132.714844 Z M 159.921875 132.714844 " fill-opacity="1" fill-rule="nonzero"/><path fill="#ffffff" d="M 247.589844 103.042969 C 247.441406 103.042969 247.292969 102.957031 247.21875 102.8125 C 247.117188 102.609375 247.199219 102.355469 247.402344 102.253906 C 254.007812 98.921875 259.292969 95.777344 263.601562 91.265625 C 268.605469 86.03125 271.238281 79.609375 270.824219 73.644531 C 270.390625 67.421875 266.503906 61.101562 260.425781 56.730469 C 254.566406 52.519531 247.515625 50.398438 241.394531 48.882812 C 198.714844 38.308594 153.042969 46 109.917969 54.785156 C 106.0625 55.570312 101.6875 56.460938 97.941406 58.441406 C 93.863281 60.601562 91.019531 63.910156 90.148438 67.523438 C 88.5 74.363281 93.664062 80.886719 99.046875 84.710938 C 101.15625 86.210938 103.453125 87.542969 105.679688 88.828125 C 109.476562 91.027344 113.402344 93.296875 116.53125 96.488281 C 116.695312 96.652344 116.691406 96.917969 116.527344 97.078125 C 116.363281 97.238281 116.097656 97.234375 115.9375 97.070312 C 112.886719 93.960938 109.007812 91.71875 105.261719 89.550781 C 103.019531 88.253906 100.703125 86.914062 98.5625 85.390625 C 92.957031 81.410156 87.589844 74.570312 89.339844 67.328125 C 90.265625 63.484375 93.261719 59.976562 97.554688 57.707031 C 101.40625 55.667969 105.839844 54.765625 109.753906 53.964844 C 134.324219 48.960938 154.953125 45.300781 175.789062 43.699219 C 200.511719 41.796875 222.035156 43.230469 241.597656 48.074219 C 247.792969 49.609375 254.9375 51.761719 260.914062 56.054688 C 267.191406 60.566406 271.207031 67.121094 271.65625 73.585938 C 272.085938 79.78125 269.371094 86.4375 264.207031 91.839844 C 259.8125 96.4375 254.460938 99.625 247.78125 102.996094 C 247.71875 103.027344 247.65625 103.042969 247.59375 103.042969 Z M 247.589844 103.042969 " fill-opacity="1" fill-rule="nonzero"/><path fill="#ffffff" d="M 248.363281 106.035156 C 248.148438 106.035156 247.964844 105.871094 247.949219 105.652344 C 247.929688 105.421875 248.101562 105.222656 248.332031 105.203125 C 259.390625 104.367188 269.296875 96.546875 272.976562 85.738281 C 276.609375 75.066406 273.289062 62.347656 264.902344 54.816406 C 257.375 48.050781 247.027344 45.703125 236.972656 44.171875 C 202.042969 38.859375 163.195312 40.566406 118.207031 49.390625 C 112.066406 50.597656 106.101562 51.890625 100.632812 54.453125 C 91.246094 58.855469 86.496094 64.636719 86.90625 71.167969 C 87.222656 76.191406 90.476562 81.492188 96.3125 86.5 C 101.773438 91.183594 108.972656 95.121094 116.582031 97.585938 C 116.800781 97.65625 116.921875 97.890625 116.851562 98.109375 C 116.78125 98.328125 116.542969 98.449219 116.324219 98.378906 C 108.613281 95.882812 101.3125 91.886719 95.769531 87.132812 C 89.757812 81.976562 86.40625 76.472656 86.074219 71.21875 C 85.773438 66.40625 87.992188 59.457031 100.28125 53.699219 C 105.832031 51.09375 111.851562 49.789062 118.046875 48.574219 C 163.128906 39.730469 202.070312 38.019531 237.09375 43.347656 C 247.28125 44.898438 257.769531 47.285156 265.460938 54.191406 C 274.085938 61.945312 277.5 75.027344 273.761719 86.007812 C 269.976562 97.125 259.78125 105.171875 248.394531 106.035156 C 248.382812 106.035156 248.375 106.035156 248.363281 106.035156 Z M 248.363281 106.035156 " fill-opacity="1" fill-rule="nonzero"/><path fill="#ffffff" d="M 142.449219 45.230469 C 142.28125 45.230469 142.125 45.128906 142.0625 44.960938 C 141.980469 44.746094 142.085938 44.503906 142.300781 44.421875 C 158.03125 38.414062 174.761719 36.9375 189.410156 40.265625 C 189.632812 40.316406 189.773438 40.539062 189.722656 40.765625 C 189.671875 40.988281 189.449219 41.128906 189.226562 41.078125 C 174.734375 37.785156 158.175781 39.25 142.597656 45.203125 C 142.550781 45.21875 142.5 45.230469 142.449219 45.230469 Z M 142.449219 45.230469 " fill-opacity="1" fill-rule="nonzero"/><g clip-path="url(#8034a63f82)"><path fill="#ffffff" d="M 135.335938 46.070312 C 135.261719 46.070312 135.191406 46.054688 135.125 46.011719 C 134.925781 45.894531 134.859375 45.640625 134.980469 45.441406 C 137.097656 41.878906 138.835938 38.023438 140.519531 34.296875 C 141.851562 31.332031 143.234375 28.269531 144.804688 25.355469 C 149.140625 17.308594 154.382812 11.976562 160.378906 9.5 C 164.410156 7.839844 168.839844 7.429688 173.398438 7.125 C 184.507812 6.382812 197.257812 6.070312 207.933594 11.761719 C 213.277344 14.609375 217.839844 18.976562 221.128906 24.382812 C 224.417969 29.789062 226.195312 35.851562 226.265625 41.90625 C 226.265625 42.136719 226.082031 42.324219 225.851562 42.328125 C 225.621094 42.324219 225.433594 42.144531 225.433594 41.914062 C 225.289062 29.949219 218.101562 18.125 207.539062 12.496094 C 197.058594 6.910156 184.449219 7.222656 173.453125 7.957031 C 168.964844 8.257812 164.613281 8.660156 160.699219 10.273438 C 154.882812 12.671875 149.78125 17.878906 145.539062 25.75 C 143.980469 28.636719 142.605469 31.6875 141.277344 34.636719 C 139.585938 38.390625 137.839844 42.265625 135.695312 45.867188 C 135.617188 46 135.476562 46.070312 135.335938 46.070312 Z M 135.335938 46.070312 " fill-opacity="1" fill-rule="nonzero"/></g><path fill="#ffffff" d="M 196.144531 113.066406 C 196.023438 113.066406 195.898438 113.011719 195.816406 112.90625 C 195.675781 112.726562 195.707031 112.464844 195.886719 112.320312 C 201.003906 108.324219 204.976562 102.738281 207.070312 96.589844 C 208.957031 91.058594 209.203125 85.316406 207.765625 80.421875 C 206.753906 76.984375 204.914062 73.820312 203.136719 70.761719 C 201.214844 67.457031 199.265625 64.300781 197.382812 61.253906 C 195.496094 58.199219 193.542969 55.039062 191.617188 51.726562 C 191.503906 51.527344 191.570312 51.273438 191.769531 51.15625 C 191.96875 51.042969 192.222656 51.109375 192.339844 51.308594 C 194.257812 54.613281 196.207031 57.765625 198.09375 60.8125 C 199.980469 63.867188 201.929688 67.027344 203.859375 70.34375 C 205.664062 73.445312 207.527344 76.652344 208.566406 80.183594 C 210.054688 85.242188 209.804688 91.164062 207.863281 96.859375 C 205.714844 103.15625 201.644531 108.882812 196.402344 112.980469 C 196.328125 113.039062 196.234375 113.066406 196.144531 113.066406 Z M 196.144531 113.066406 " fill-opacity="1" fill-rule="nonzero"/><path fill="#ffffff" d="M 227.785156 72.828125 C 227.75 72.828125 227.710938 72.824219 227.675781 72.8125 C 227.453125 72.75 227.324219 72.523438 227.386719 72.300781 C 227.722656 71.101562 227.363281 69.652344 226.429688 68.417969 C 225.5625 67.273438 224.359375 66.429688 223.101562 65.597656 C 200.992188 50.929688 171.984375 45.609375 145.503906 51.367188 C 145.277344 51.414062 145.054688 51.273438 145.007812 51.046875 C 144.957031 50.820312 145.097656 50.601562 145.324219 50.550781 C 172.019531 44.746094 201.269531 50.109375 223.5625 64.898438 C 224.882812 65.777344 226.148438 66.667969 227.09375 67.914062 C 228.183594 69.355469 228.589844 71.078125 228.1875 72.523438 C 228.136719 72.707031 227.96875 72.828125 227.785156 72.828125 Z M 227.785156 72.828125 " fill-opacity="1" fill-rule="nonzero"/><path fill="#ffffff" d="M 281.324219 156.980469 C 278.742188 156.980469 276.164062 156.25 274.050781 154.789062 C 270.503906 152.34375 268.542969 148.402344 266.648438 144.589844 C 264.992188 141.261719 263.28125 137.820312 260.53125 135.421875 C 258.066406 133.277344 254.898438 132.078125 251.832031 130.921875 C 249.007812 129.855469 246.085938 128.753906 243.640625 126.90625 C 238.890625 123.320312 236.621094 117.414062 235.324219 113.28125 C 234.882812 111.875 234.476562 110.429688 234.085938 109.03125 C 233.0625 105.390625 232.003906 101.625 230.234375 98.25 C 229.222656 96.324219 227.957031 94.480469 226.730469 92.699219 C 225.042969 90.242188 223.296875 87.699219 222.167969 84.867188 C 221.472656 83.125 221.015625 81.277344 220.570312 79.488281 C 219.992188 77.148438 219.394531 74.726562 218.257812 72.589844 C 215.53125 67.460938 210.40625 64.695312 204.980469 61.765625 C 200.5 59.347656 195.871094 56.851562 192.707031 52.894531 C 192.585938 52.738281 192.585938 52.519531 192.710938 52.367188 C 192.835938 52.214844 193.050781 52.171875 193.226562 52.265625 C 202.902344 57.328125 212.910156 62.570312 221.390625 69.816406 C 228.058594 75.515625 236.511719 84.957031 238.921875 97.554688 C 239.269531 99.367188 239.488281 101.242188 239.699219 103.054688 C 240.167969 107.074219 240.652344 111.230469 242.558594 114.785156 C 244.933594 119.214844 249.023438 122.082031 253.355469 125.117188 C 256.804688 127.53125 260.371094 130.027344 262.953125 133.378906 C 264.773438 135.738281 266.054688 138.464844 267.296875 141.101562 C 268.128906 142.871094 268.988281 144.699219 270 146.386719 C 271.390625 148.714844 275.316406 154.164062 281.761719 154.632812 C 281.816406 154.625 281.871094 154.617188 281.925781 154.609375 C 280.648438 154.21875 279.394531 153.625 278.21875 152.835938 C 274.984375 150.671875 272.890625 147.429688 272.480469 143.9375 C 272.15625 141.207031 272.726562 138.464844 273.273438 135.8125 C 273.898438 132.796875 274.488281 129.945312 273.898438 127.089844 C 272.84375 121.976562 267.371094 118.082031 262.191406 118.746094 C 261.082031 118.890625 259.910156 119.203125 258.773438 119.507812 C 255.929688 120.273438 252.988281 121.0625 250.585938 119.34375 C 247.871094 117.398438 247.894531 113.671875 247.914062 110.386719 C 247.917969 110.125 247.917969 109.863281 247.917969 109.609375 C 247.929688 99.359375 242.917969 90.472656 238.707031 84.824219 C 233.300781 77.566406 226.359375 71.515625 219.644531 65.664062 C 219.472656 65.511719 219.453125 65.25 219.605469 65.078125 C 219.757812 64.902344 220.019531 64.886719 220.195312 65.035156 C 226.941406 70.914062 233.914062 76.992188 239.375 84.324219 C 243.660156 90.078125 248.761719 99.128906 248.75 109.609375 C 248.75 109.867188 248.75 110.128906 248.746094 110.390625 C 248.726562 113.476562 248.703125 116.972656 251.070312 118.664062 C 253.152344 120.152344 255.777344 119.449219 258.558594 118.703125 C 259.71875 118.390625 260.917969 118.070312 262.082031 117.917969 C 267.769531 117.183594 273.554688 121.304688 274.714844 126.917969 C 275.339844 129.945312 274.703125 133.011719 274.089844 135.980469 C 273.554688 138.566406 273 141.242188 273.304688 143.835938 C 273.691406 147.085938 275.648438 150.113281 278.679688 152.144531 C 281.710938 154.171875 285.257812 154.828125 288.40625 153.945312 C 288.601562 153.890625 288.808594 153.984375 288.894531 154.164062 C 288.984375 154.347656 288.925781 154.566406 288.761719 154.683594 C 286.613281 156.214844 283.964844 156.980469 281.320312 156.980469 Z M 194.914062 54.089844 C 197.855469 56.972656 201.667969 59.03125 205.375 61.03125 C 210.675781 63.890625 216.152344 66.847656 218.992188 72.195312 C 220.175781 74.425781 220.789062 76.898438 221.382812 79.289062 C 221.816406 81.046875 222.269531 82.867188 222.941406 84.558594 C 224.035156 87.304688 225.757812 89.808594 227.417969 92.226562 C 228.660156 94.027344 229.9375 95.890625 230.972656 97.863281 C 232.785156 101.316406 233.855469 105.125 234.886719 108.804688 C 235.277344 110.195312 235.683594 111.636719 236.117188 113.03125 C 237.378906 117.054688 239.585938 122.800781 244.140625 126.242188 C 246.492188 128.015625 249.355469 129.09375 252.125 130.140625 C 255.257812 131.324219 258.5 132.546875 261.074219 134.792969 C 263.953125 137.296875 265.703125 140.816406 267.394531 144.21875 C 269.328125 148.105469 271.15625 151.777344 274.523438 154.105469 C 277.765625 156.34375 282.175781 156.742188 285.839844 155.316406 C 284.507812 155.210938 283.167969 155.257812 281.839844 155.460938 C 281.8125 155.464844 281.78125 155.46875 281.75 155.464844 C 274.886719 154.992188 270.746094 149.257812 269.285156 146.8125 C 268.253906 145.085938 267.382812 143.242188 266.542969 141.457031 C 265.320312 138.859375 264.058594 136.175781 262.292969 133.886719 C 259.789062 130.636719 256.277344 128.175781 252.878906 125.796875 C 248.660156 122.839844 244.292969 119.78125 241.828125 115.175781 C 239.847656 111.480469 239.351562 107.246094 238.871094 103.148438 C 238.664062 101.351562 238.445312 99.488281 238.105469 97.707031 C 235.742188 85.347656 227.417969 76.0625 220.847656 70.449219 C 213.042969 63.777344 203.894531 58.804688 194.914062 54.085938 Z M 194.914062 54.089844 " fill-opacity="1" fill-rule="nonzero"/><path fill="#ffffff" d="M 262.261719 146.003906 C 262.207031 146.003906 262.152344 145.992188 262.097656 145.96875 C 257.839844 144.15625 253.035156 143.75 248.386719 143.355469 C 242.960938 142.898438 237.347656 142.421875 232.546875 139.707031 C 227.335938 136.757812 223.292969 131.179688 221.167969 124.003906 C 219.453125 118.210938 219.078125 112.078125 218.71875 106.144531 C 218.6875 105.617188 218.65625 105.085938 218.621094 104.558594 C 218.207031 97.945312 217.636719 91.511719 215.246094 85.511719 C 214.007812 82.402344 212.257812 79.40625 210.5625 76.511719 C 207.792969 71.769531 204.929688 66.867188 204.234375 61.332031 C 204.207031 61.105469 204.367188 60.898438 204.597656 60.867188 C 204.824219 60.839844 205.03125 61 205.0625 61.230469 C 205.734375 66.59375 208.554688 71.421875 211.285156 76.089844 C 212.992188 79.011719 214.757812 82.035156 216.023438 85.203125 C 218.457031 91.308594 219.054688 98.085938 219.453125 104.503906 C 219.488281 105.035156 219.519531 105.5625 219.554688 106.09375 C 219.910156 111.980469 220.28125 118.066406 221.96875 123.761719 C 224.035156 130.730469 227.9375 136.136719 232.957031 138.976562 C 237.601562 141.605469 243.121094 142.070312 248.460938 142.523438 C 253.171875 142.921875 258.042969 143.332031 262.425781 145.199219 C 262.636719 145.289062 262.738281 145.535156 262.648438 145.746094 C 262.578125 145.90625 262.425781 146 262.261719 146 Z M 262.261719 146.003906 " fill-opacity="1" fill-rule="nonzero"/><path fill="#ffffff" d="M 227.714844 135.890625 L 227.710938 135.890625 C 220.753906 135.800781 214.199219 130.398438 212.785156 123.585938 C 211.886719 119.261719 212.886719 114.867188 213.855469 110.621094 C 214.203125 109.09375 214.5625 107.511719 214.828125 105.964844 C 216.015625 98.96875 215.433594 91.28125 213.09375 83.121094 C 210.917969 75.527344 207.539062 68.53125 204.441406 62.613281 C 203.609375 65.1875 204.339844 67.902344 204.890625 69.375 C 205.570312 71.1875 206.574219 72.898438 207.542969 74.558594 C 207.914062 75.1875 208.296875 75.84375 208.65625 76.496094 C 213.410156 85.082031 215.3125 95.167969 214.015625 104.894531 C 212.71875 114.625 208.238281 123.859375 201.398438 130.898438 C 201.238281 131.0625 200.976562 131.066406 200.808594 130.90625 C 200.644531 130.746094 200.640625 130.484375 200.800781 130.316406 C 207.515625 123.40625 211.914062 114.335938 213.191406 104.785156 C 214.464844 95.234375 212.59375 85.328125 207.929688 76.898438 C 207.570312 76.253906 207.191406 75.605469 206.824219 74.976562 C 205.835938 73.289062 204.8125 71.542969 204.109375 69.667969 C 202.976562 66.636719 202.9375 63.714844 204.007812 61.433594 C 204.074219 61.292969 204.21875 61.199219 204.375 61.195312 C 204.535156 61.1875 204.679688 61.277344 204.753906 61.417969 C 207.984375 67.535156 211.597656 74.875 213.894531 82.886719 C 216.269531 91.171875 216.859375 98.980469 215.648438 106.101562 C 215.378906 107.671875 215.015625 109.265625 214.667969 110.804688 C 213.71875 114.964844 212.738281 119.269531 213.597656 123.414062 C 214.9375 129.859375 221.140625 134.972656 227.71875 135.054688 C 227.949219 135.058594 228.132812 135.246094 228.128906 135.476562 C 228.128906 135.707031 227.941406 135.890625 227.714844 135.890625 Z M 227.714844 135.890625 " fill-opacity="1" fill-rule="nonzero"/><path fill="#ffffff" d="M 253.527344 131.539062 C 253.476562 131.539062 253.421875 131.527344 253.371094 131.507812 C 251.019531 130.542969 248.46875 129.832031 246.003906 129.148438 C 243.097656 128.339844 240.089844 127.503906 237.351562 126.234375 C 230.976562 123.289062 225.816406 116.929688 222.824219 108.332031 C 220.976562 103.019531 220.035156 97.382812 219.125 91.929688 C 218.769531 89.800781 218.402344 87.597656 217.988281 85.445312 C 216.722656 78.90625 214.578125 70.589844 209.21875 64.3125 C 209.066406 64.136719 209.089844 63.875 209.265625 63.726562 C 209.4375 63.578125 209.703125 63.597656 209.851562 63.773438 C 215.339844 70.199219 217.519531 78.648438 218.804688 85.289062 C 219.226562 87.449219 219.59375 89.660156 219.949219 91.796875 C 220.851562 97.210938 221.785156 102.8125 223.613281 108.058594 C 226.53125 116.441406 231.53125 122.628906 237.699219 125.480469 C 240.378906 126.71875 243.351562 127.546875 246.226562 128.347656 C 248.714844 129.039062 251.289062 129.753906 253.6875 130.738281 C 253.898438 130.824219 254 131.066406 253.914062 131.28125 C 253.847656 131.441406 253.691406 131.539062 253.527344 131.539062 Z M 253.527344 131.539062 " fill-opacity="1" fill-rule="nonzero"/><path fill="#ffffff" d="M 234.675781 176.714844 C 234.65625 176.714844 234.636719 176.714844 234.617188 176.710938 C 234.394531 176.675781 234.238281 176.476562 234.261719 176.257812 C 234.453125 174.367188 234.648438 172.457031 234.890625 170.546875 C 235.117188 163.117188 233.066406 155.644531 228.988281 149.398438 C 227.351562 146.894531 225.378906 144.558594 223.46875 142.296875 C 222.351562 140.972656 221.195312 139.605469 220.113281 138.210938 L 219.703125 137.679688 C 217.617188 135 215.476562 132.25 214.285156 129.101562 C 214.742188 132.773438 216.507812 136.25 218.226562 139.636719 C 219.023438 141.203125 219.902344 142.769531 220.753906 144.285156 C 222.367188 147.152344 224.03125 150.117188 225.226562 153.253906 C 227.371094 158.886719 227.488281 164.28125 225.554688 168.445312 C 225.464844 168.632812 225.25 168.730469 225.046875 168.664062 C 224.847656 168.601562 224.726562 168.398438 224.765625 168.191406 C 225.738281 162.941406 222.53125 157.808594 219.667969 154.425781 C 218.644531 153.21875 217.53125 152.03125 216.457031 150.886719 C 214.011719 148.285156 211.484375 145.589844 209.765625 142.378906 C 205.492188 134.402344 207.019531 124.949219 209.054688 118.425781 C 209.125 118.207031 209.359375 118.082031 209.578125 118.152344 C 209.796875 118.21875 209.917969 118.453125 209.851562 118.671875 C 207.863281 125.046875 206.363281 134.265625 210.5 141.988281 C 212.167969 145.101562 214.65625 147.753906 217.0625 150.316406 C 218.144531 151.472656 219.265625 152.664062 220.304688 153.890625 C 222.726562 156.753906 225.386719 160.839844 225.738281 165.265625 C 226.480469 161.8125 226.050781 157.761719 224.445312 153.550781 C 223.273438 150.472656 221.621094 147.535156 220.027344 144.695312 C 219.171875 143.171875 218.289062 141.597656 217.484375 140.015625 C 215.191406 135.503906 212.820312 130.839844 213.429688 125.652344 C 213.457031 125.441406 213.632812 125.285156 213.84375 125.285156 C 214.054688 125.285156 214.234375 125.441406 214.257812 125.648438 C 214.820312 130.050781 217.636719 133.671875 220.359375 137.171875 L 220.773438 137.703125 C 221.84375 139.082031 222.996094 140.445312 224.105469 141.765625 C 226.03125 144.042969 228.019531 146.398438 229.683594 148.945312 C 233.03125 154.070312 235.042969 160 235.589844 166.066406 C 235.980469 163.992188 236.484375 161.9375 237.160156 159.925781 C 238.566406 155.753906 241.375 150.039062 246.785156 146.53125 C 251.992188 143.15625 258.378906 142.953125 263.449219 146 C 263.46875 146.011719 263.488281 146.027344 263.503906 146.039062 C 266.96875 148.972656 269.605469 152.976562 270.9375 157.316406 C 271.003906 157.535156 270.878906 157.769531 270.660156 157.835938 C 270.4375 157.902344 270.207031 157.78125 270.140625 157.5625 C 268.859375 153.382812 266.320312 149.527344 262.992188 146.699219 C 258.199219 143.832031 252.164062 144.035156 247.238281 147.230469 C 242.027344 150.609375 239.3125 156.144531 237.949219 160.191406 C 236.8125 163.566406 236.175781 167.09375 235.722656 170.621094 C 235.660156 172.550781 235.449219 174.476562 235.082031 176.378906 C 235.046875 176.578125 234.871094 176.71875 234.675781 176.71875 Z M 234.675781 176.714844 " fill-opacity="1" fill-rule="nonzero"/></svg>